<?xml version="1.0" encoding="UTF-8"?>
<COLLADA xmlns="http://www.collada.org/2005/11/COLLADASchema" version="1.4.1">
<!--
# File generated by ImageToStl.com - Free Image and 3D model conversion tools
-->
  <asset>
    <contributor>
      <author>ImageToStl.com</author>
      <authoring_tool>ImageToStl.com</authoring_tool>
    </contributor>
    <created>2026-04-23T08:31:16</created>
    <modified>2026-04-23T08:31:16</modified>
    <up_axis>Z_UP</up_axis>
  </asset>
  <library_effects>
    <effect id="effect_0">
        <profile_COMMON>
          <technique sid="common">
            <phong>
              <diffuse>
                <color>0.85 0.85 0.85 1</color>
              </diffuse>
              <specular>
                <color>0.05 0.05 0.05 1</color>
              </specular>
              <shininess>
                <float>64</float>
              </shininess>
            </phong>
          </technique>
        </profile_COMMON>
    </effect>
  </library_effects>
  <library_materials>
    <material id="mat_0">
      <instance_effect url="#effect_0"/>
    </material>
  </library_materials>
  <library_geometries>
    <geometry id="geometry_2b11831c_de23_4bdd_b5e2_06fa67e235d2">
      <mesh>
        <source id="pos_0">
          <float_array id="pos_0-array" count="108">4200 4200 0 -4200 4200 0 4200 4200 500 -4200 4200 500 4200 -4200 0 4200 -4200 500 -2200 -4200 0 -2200 -4200 500 -2200 -4000 0 -2200 -4000 500 -400 -4000 0 -400 -4000 500 -400 600 0 -400 600 500 -200 600 0 -200 600 500 -200 -4000 0 -200 -4000 500 4000 -4000 0 4000 -4000 500 4000 4000 0 4000 4000 500 -4000 4000 0 -4000 4000 500 -4000 -4000 0 -4000 -4000 500 -4200 -4000 0 -4200 -4000 500 -2500 -2400 0 -2450 -2400 0 -2500 -2400 800 -2450 -2400 800 -2500 0 0 -2500 0 800 -2450 0 0 -2450 0 800</float_array>
          <technique_common>
            <accessor source="#pos_0-array" count="108" stride="3">
              <param name="X" type="float"/>
              <param name="Y" type="float"/>
              <param name="Z" type="float"/>
            </accessor>
          </technique_common>
        </source>
        <source id="norm_0">
          <float_array id="norm_0-array" count="48">0 1 -0 1 0 -0 0 -1 0 -1 0 0 -0 1 -0 -0 1 0 -1 0 0 1 0 -0 -1 -0 0 0 -1 0 1 0 -0 -1 -0 0 0 -0 1 0 0 -1 -0 -1 0 1 0 0</float_array>
          <technique_common>
            <accessor source="#norm_0-array" count="48" stride="3">
              <param name="X" type="float"/>
              <param name="Y" type="float"/>
              <param name="Z" type="float"/>
            </accessor>
          </technique_common>
        </source>
        <vertices id="vert_0">
          <input semantic="POSITION" source="#pos_0"/>
        </vertices>
        <triangles count="64" material="mat_0">
          <input semantic="VERTEX" source="#vert_0" offset="0"/>
          <input semantic="NORMAL" source="#norm_0" offset="1"/>
          <p>0 0 1 0 2 0 2 0 1 0 3 0 4 1 0 1 5 1 5 1 0 1 2 1 6 2 4 2 7 2 7 2 4 2 5 2 8 3 6 3 9 3 9 3 6 3 7 3 10 4 8 4 11 4 11 5 8 5 9 5 12 6 10 6 13 6 13 6 10 6 11 6 14 0 12 0 15 0 15 0 12 0 13 0 16 7 14 7 17 7 17 7 14 7 15 7 18 0 16 0 19 0 19 0 16 0 17 0 20 8 18 8 21 8 21 8 18 8 19 8 22 9 20 9 23 9 23 9 20 9 21 9 24 10 22 10 25 10 25 10 22 10 23 10 26 2 24 2 27 2 27 2 24 2 25 2 1 11 26 11 3 11 3 11 26 11 27 11 27 12 23 12 3 12 3 12 23 12 21 12 3 12 21 12 2 12 2 12 21 12 5 12 5 12 21 12 19 12 5 12 19 12 17 12 27 12 25 12 23 12 15 12 13 12 17 12 17 12 13 12 11 12 17 12 11 12 7 12 7 12 11 12 9 12 7 12 5 12 17 12 24 13 26 13 22 13 22 13 26 13 1 13 22 13 1 13 0 13 22 13 0 13 20 13 20 13 0 13 4 13 20 13 4 13 18 13 18 13 4 13 16 13 16 13 4 13 6 13 16 13 6 13 10 13 10 13 6 13 8 13 12 13 14 13 10 13 10 13 14 13 16 13 28 14 29 14 30 14 30 14 29 14 31 14 32 3 28 3 33 3 33 3 28 3 30 3 34 0 32 0 35 0 35 0 32 0 33 0 29 15 34 15 31 15 31 15 34 15 35 15 35 12 33 12 31 12 31 12 33 12 30 12 29 13 28 13 34 13 34 13 28 13 32 13</p>
        </triangles>
      </mesh>
    </geometry>
  </library_geometries>
  <library_visual_scenes>
    <visual_scene id="DefaultScene">
      <node id="node_c2998ae4_a1a4_4a0e_9797_396df35d900e" type="NODE">
        <matrix>1 0 0 0 0 1 0 0 0 0 1 0 0 0 0 1</matrix>
        <node id="node_3dbe97fc_dd00_4c01_853c_d12967ba1a57" type="NODE">
          <matrix>1 0 0 0 0 1 0 0 0 0 1 0 0 0 0 1</matrix>
          <node id="node_3dbe97fc_dd00_4c01_853c_d12967ba1a57_mesh0" type="NODE">
            <matrix>1 0 0 0 0 1 0 0 0 0 1 0 0 0 0 1</matrix>
            <instance_geometry url="#geometry_2b11831c_de23_4bdd_b5e2_06fa67e235d2">
              <bind_material>
                <technique_common>
                  <instance_material symbol="mat_0" target="#mat_0"/>
                </technique_common>
              </bind_material>
            </instance_geometry>
          </node>
        </node>
      </node>
    </visual_scene>
  </library_visual_scenes>
  <scene>
    <instance_visual_scene url="#DefaultScene"/>
  </scene>
</COLLADA>
